<svg width="114" height="270" viewBox="0 0 114 270" fill="none" xmlns="http://www.w3.org/2000/svg">
<rect width="114" height="270" fill="white"/>
<circle cx="57" cy="123" r="40" fill="#D9D9D9"/>
<g filter="url(#filter0_d_1_7)">
<circle cx="57.385" cy="123.385" r="32" transform="rotate(-155.514 57.385 123.385)" fill="#ECECEC"/>
</g>
<g filter="url(#filter1_i_1_7)">
<rect x="47.0878" y="149.672" width="3" height="9" transform="rotate(-155.514 47.0878 149.672)" fill="#B4B4B4"/>
</g>
<path d="M41 175.5C41 174.119 42.1193 173 43.5 173H70.5C71.8807 173 73 174.119 73 175.5V187.5C73 188.881 71.8807 190 70.5 190H43.5C42.1193 190 41 188.881 41 187.5V175.5Z" fill="#B4B4B4"/>
<path d="M49.6 186.144C48.48 186.144 47.652 185.764 47.116 185.004C46.588 184.244 46.324 183.18 46.324 181.812C46.324 180.444 46.588 179.38 47.116 178.62C47.652 177.86 48.48 177.48 49.6 177.48C50.72 177.48 51.544 177.86 52.072 178.62C52.608 179.38 52.876 180.444 52.876 181.812C52.876 183.18 52.608 184.244 52.072 185.004C51.544 185.764 50.72 186.144 49.6 186.144ZM49.6 184.728C50.136 184.728 50.508 184.54 50.716 184.164C50.932 183.788 51.04 183.264 51.04 182.592V181.032C51.04 180.36 50.932 179.836 50.716 179.46C50.508 179.084 50.136 178.896 49.6 178.896C49.064 178.896 48.688 179.084 48.472 179.46C48.264 179.836 48.16 180.36 48.16 181.032V182.592C48.16 183.264 48.264 183.788 48.472 184.164C48.688 184.54 49.064 184.728 49.6 184.728ZM49.6 182.52C49.32 182.52 49.124 182.464 49.012 182.352C48.908 182.24 48.856 182.104 48.856 181.944V181.68C48.856 181.52 48.908 181.384 49.012 181.272C49.124 181.16 49.32 181.104 49.6 181.104C49.88 181.104 50.072 181.16 50.176 181.272C50.288 181.384 50.344 181.52 50.344 181.68V181.944C50.344 182.104 50.288 182.24 50.176 182.352C50.072 182.464 49.88 182.52 49.6 182.52ZM56.7953 186.144C55.6753 186.144 54.8473 185.764 54.3113 185.004C53.7833 184.244 53.5193 183.18 53.5193 181.812C53.5193 180.444 53.7833 179.38 54.3113 178.62C54.8473 177.86 55.6753 177.48 56.7953 177.48C57.9153 177.48 58.7393 177.86 59.2673 178.62C59.8033 179.38 60.0713 180.444 60.0713 181.812C60.0713 183.18 59.8033 184.244 59.2673 185.004C58.7393 185.764 57.9153 186.144 56.7953 186.144ZM56.7953 184.728C57.3313 184.728 57.7033 184.54 57.9113 184.164C58.1273 183.788 58.2353 183.264 58.2353 182.592V181.032C58.2353 180.36 58.1273 179.836 57.9113 179.46C57.7033 179.084 57.3313 178.896 56.7953 178.896C56.2593 178.896 55.8833 179.084 55.6673 179.46C55.4593 179.836 55.3553 180.36 55.3553 181.032V182.592C55.3553 183.264 55.4593 183.788 55.6673 184.164C55.8833 184.54 56.2593 184.728 56.7953 184.728ZM56.7953 182.52C56.5153 182.52 56.3193 182.464 56.2073 182.352C56.1033 182.24 56.0513 182.104 56.0513 181.944V181.68C56.0513 181.52 56.1033 181.384 56.2073 181.272C56.3193 181.16 56.5153 181.104 56.7953 181.104C57.0753 181.104 57.2673 181.16 57.3713 181.272C57.4833 181.384 57.5393 181.52 57.5393 181.68V181.944C57.5393 182.104 57.4833 182.24 57.3713 182.352C57.2673 182.464 57.0753 182.52 56.7953 182.52ZM63.9906 186.144C62.8706 186.144 62.0426 185.764 61.5066 185.004C60.9786 184.244 60.7146 183.18 60.7146 181.812C60.7146 180.444 60.9786 179.38 61.5066 178.62C62.0426 177.86 62.8706 177.48 63.9906 177.48C65.1106 177.48 65.9346 177.86 66.4626 178.62C66.9986 179.38 67.2666 180.444 67.2666 181.812C67.2666 183.18 66.9986 184.244 66.4626 185.004C65.9346 185.764 65.1106 186.144 63.9906 186.144ZM63.9906 184.728C64.5266 184.728 64.8986 184.54 65.1066 184.164C65.3226 183.788 65.4306 183.264 65.4306 182.592V181.032C65.4306 180.36 65.3226 179.836 65.1066 179.46C64.8986 179.084 64.5266 178.896 63.9906 178.896C63.4546 178.896 63.0786 179.084 62.8626 179.46C62.6546 179.836 62.5506 180.36 62.5506 181.032V182.592C62.5506 183.264 62.6546 183.788 62.8626 184.164C63.0786 184.54 63.4546 184.728 63.9906 184.728ZM63.9906 182.52C63.7106 182.52 63.5146 182.464 63.4026 182.352C63.2986 182.24 63.2466 182.104 63.2466 181.944V181.68C63.2466 181.52 63.2986 181.384 63.4026 181.272C63.5146 181.16 63.7106 181.104 63.9906 181.104C64.2706 181.104 64.4626 181.16 64.5666 181.272C64.6786 181.384 64.7346 181.52 64.7346 181.68V181.944C64.7346 182.104 64.6786 182.24 64.5666 182.352C64.4626 182.464 64.2706 182.52 63.9906 182.52Z" fill="white"/>
<defs>
<filter id="filter0_d_1_7" x="21.3771" y="91.3771" width="72.0156" height="72.0156" filterUnits="userSpaceOnUse" color-interpolation-filters="sRGB">
<feFlood flood-opacity="0" result="BackgroundImageFix"/>
<feColorMatrix in="SourceAlpha" type="matrix" values="0 0 0 0 0 0 0 0 0 0 0 0 0 0 0 0 0 0 127 0" result="hardAlpha"/>
<feOffset dy="4"/>
<feGaussianBlur stdDeviation="2"/>
<feComposite in2="hardAlpha" operator="out"/>
<feColorMatrix type="matrix" values="0 0 0 0 0 0 0 0 0 0 0 0 0 0 0 0 0 0 0.25 0"/>
<feBlend mode="normal" in2="BackgroundImageFix" result="effect1_dropShadow_1_7"/>
<feBlend mode="normal" in="SourceGraphic" in2="effect1_dropShadow_1_7" result="shape"/>
</filter>
<filter id="filter1_i_1_7" x="44.3576" y="140.238" width="6.46036" height="13.434" filterUnits="userSpaceOnUse" color-interpolation-filters="sRGB">
<feFlood flood-opacity="0" result="BackgroundImageFix"/>
<feBlend mode="normal" in="SourceGraphic" in2="BackgroundImageFix" result="shape"/>
<feColorMatrix in="SourceAlpha" type="matrix" values="0 0 0 0 0 0 0 0 0 0 0 0 0 0 0 0 0 0 127 0" result="hardAlpha"/>
<feOffset dy="4"/>
<feGaussianBlur stdDeviation="2"/>
<feComposite in2="hardAlpha" operator="arithmetic" k2="-1" k3="1"/>
<feColorMatrix type="matrix" values="0 0 0 0 0 0 0 0 0 0 0 0 0 0 0 0 0 0 0.25 0"/>
<feBlend mode="normal" in2="shape" result="effect1_innerShadow_1_7"/>
</filter>
</defs>
</svg>
