<svg width="114" height="270" viewBox="0 0 114 270" fill="none" xmlns="http://www.w3.org/2000/svg">
<rect width="114" height="270" fill="white"/>
<g filter="url(#filter0_i_4_65)">
<rect x="55" y="47" width="4" height="150" fill="#B4B4B4"/>
</g>
<g filter="url(#filter1_d_4_65)">
<rect x="44" y="187" width="26" height="13" fill="#D9D9D9"/>
</g>
<g filter="url(#filter2_d_4_65)">
<rect x="44" y="184" width="26" height="13" fill="#ECECEC"/>
</g>
<path d="M41 209.5C41 208.119 42.1193 207 43.5 207H70.5C71.8807 207 73 208.119 73 209.5V221.5C73 222.881 71.8807 224 70.5 224H43.5C42.1193 224 41 222.881 41 221.5V209.5Z" fill="#B4B4B4"/>
<path d="M49.6 220.144C48.48 220.144 47.652 219.764 47.116 219.004C46.588 218.244 46.324 217.18 46.324 215.812C46.324 214.444 46.588 213.38 47.116 212.62C47.652 211.86 48.48 211.48 49.6 211.48C50.72 211.48 51.544 211.86 52.072 212.62C52.608 213.38 52.876 214.444 52.876 215.812C52.876 217.18 52.608 218.244 52.072 219.004C51.544 219.764 50.72 220.144 49.6 220.144ZM49.6 218.728C50.136 218.728 50.508 218.54 50.716 218.164C50.932 217.788 51.04 217.264 51.04 216.592V215.032C51.04 214.36 50.932 213.836 50.716 213.46C50.508 213.084 50.136 212.896 49.6 212.896C49.064 212.896 48.688 213.084 48.472 213.46C48.264 213.836 48.16 214.36 48.16 215.032V216.592C48.16 217.264 48.264 217.788 48.472 218.164C48.688 218.54 49.064 218.728 49.6 218.728ZM49.6 216.52C49.32 216.52 49.124 216.464 49.012 216.352C48.908 216.24 48.856 216.104 48.856 215.944V215.68C48.856 215.52 48.908 215.384 49.012 215.272C49.124 215.16 49.32 215.104 49.6 215.104C49.88 215.104 50.072 215.16 50.176 215.272C50.288 215.384 50.344 215.52 50.344 215.68V215.944C50.344 216.104 50.288 216.24 50.176 216.352C50.072 216.464 49.88 216.52 49.6 216.52ZM56.7953 220.144C55.6753 220.144 54.8473 219.764 54.3113 219.004C53.7833 218.244 53.5193 217.18 53.5193 215.812C53.5193 214.444 53.7833 213.38 54.3113 212.62C54.8473 211.86 55.6753 211.48 56.7953 211.48C57.9153 211.48 58.7393 211.86 59.2673 212.62C59.8033 213.38 60.0713 214.444 60.0713 215.812C60.0713 217.18 59.8033 218.244 59.2673 219.004C58.7393 219.764 57.9153 220.144 56.7953 220.144ZM56.7953 218.728C57.3313 218.728 57.7033 218.54 57.9113 218.164C58.1273 217.788 58.2353 217.264 58.2353 216.592V215.032C58.2353 214.36 58.1273 213.836 57.9113 213.46C57.7033 213.084 57.3313 212.896 56.7953 212.896C56.2593 212.896 55.8833 213.084 55.6673 213.46C55.4593 213.836 55.3553 214.36 55.3553 215.032V216.592C55.3553 217.264 55.4593 217.788 55.6673 218.164C55.8833 218.54 56.2593 218.728 56.7953 218.728ZM56.7953 216.52C56.5153 216.52 56.3193 216.464 56.2073 216.352C56.1033 216.24 56.0513 216.104 56.0513 215.944V215.68C56.0513 215.52 56.1033 215.384 56.2073 215.272C56.3193 215.16 56.5153 215.104 56.7953 215.104C57.0753 215.104 57.2673 215.16 57.3713 215.272C57.4833 215.384 57.5393 215.52 57.5393 215.68V215.944C57.5393 216.104 57.4833 216.24 57.3713 216.352C57.2673 216.464 57.0753 216.52 56.7953 216.52ZM63.9906 220.144C62.8706 220.144 62.0426 219.764 61.5066 219.004C60.9786 218.244 60.7146 217.18 60.7146 215.812C60.7146 214.444 60.9786 213.38 61.5066 212.62C62.0426 211.86 62.8706 211.48 63.9906 211.48C65.1106 211.48 65.9346 211.86 66.4626 212.62C66.9986 213.38 67.2666 214.444 67.2666 215.812C67.2666 217.18 66.9986 218.244 66.4626 219.004C65.9346 219.764 65.1106 220.144 63.9906 220.144ZM63.9906 218.728C64.5266 218.728 64.8986 218.54 65.1066 218.164C65.3226 217.788 65.4306 217.264 65.4306 216.592V215.032C65.4306 214.36 65.3226 213.836 65.1066 213.46C64.8986 213.084 64.5266 212.896 63.9906 212.896C63.4546 212.896 63.0786 213.084 62.8626 213.46C62.6546 213.836 62.5506 214.36 62.5506 215.032V216.592C62.5506 217.264 62.6546 217.788 62.8626 218.164C63.0786 218.54 63.4546 218.728 63.9906 218.728ZM63.9906 216.52C63.7106 216.52 63.5146 216.464 63.4026 216.352C63.2986 216.24 63.2466 216.104 63.2466 215.944V215.68C63.2466 215.52 63.2986 215.384 63.4026 215.272C63.5146 215.16 63.7106 215.104 63.9906 215.104C64.2706 215.104 64.4626 215.16 64.5666 215.272C64.6786 215.384 64.7346 215.52 64.7346 215.68V215.944C64.7346 216.104 64.6786 216.24 64.5666 216.352C64.4626 216.464 64.2706 216.52 63.9906 216.52Z" fill="white"/>
<defs>
<filter id="filter0_i_4_65" x="55" y="47" width="4" height="154" filterUnits="userSpaceOnUse" color-interpolation-filters="sRGB">
<feFlood flood-opacity="0" result="BackgroundImageFix"/>
<feBlend mode="normal" in="SourceGraphic" in2="BackgroundImageFix" result="shape"/>
<feColorMatrix in="SourceAlpha" type="matrix" values="0 0 0 0 0 0 0 0 0 0 0 0 0 0 0 0 0 0 127 0" result="hardAlpha"/>
<feOffset dy="4"/>
<feGaussianBlur stdDeviation="2"/>
<feComposite in2="hardAlpha" operator="arithmetic" k2="-1" k3="1"/>
<feColorMatrix type="matrix" values="0 0 0 0 0 0 0 0 0 0 0 0 0 0 0 0 0 0 0.25 0"/>
<feBlend mode="normal" in2="shape" result="effect1_innerShadow_4_65"/>
</filter>
<filter id="filter1_d_4_65" x="40" y="187" width="34" height="21" filterUnits="userSpaceOnUse" color-interpolation-filters="sRGB">
<feFlood flood-opacity="0" result="BackgroundImageFix"/>
<feColorMatrix in="SourceAlpha" type="matrix" values="0 0 0 0 0 0 0 0 0 0 0 0 0 0 0 0 0 0 127 0" result="hardAlpha"/>
<feOffset dy="4"/>
<feGaussianBlur stdDeviation="2"/>
<feComposite in2="hardAlpha" operator="out"/>
<feColorMatrix type="matrix" values="0 0 0 0 0 0 0 0 0 0 0 0 0 0 0 0 0 0 0.05 0"/>
<feBlend mode="normal" in2="BackgroundImageFix" result="effect1_dropShadow_4_65"/>
<feBlend mode="normal" in="SourceGraphic" in2="effect1_dropShadow_4_65" result="shape"/>
</filter>
<filter id="filter2_d_4_65" x="40" y="184" width="34" height="21" filterUnits="userSpaceOnUse" color-interpolation-filters="sRGB">
<feFlood flood-opacity="0" result="BackgroundImageFix"/>
<feColorMatrix in="SourceAlpha" type="matrix" values="0 0 0 0 0 0 0 0 0 0 0 0 0 0 0 0 0 0 127 0" result="hardAlpha"/>
<feOffset dy="4"/>
<feGaussianBlur stdDeviation="2"/>
<feComposite in2="hardAlpha" operator="out"/>
<feColorMatrix type="matrix" values="0 0 0 0 0 0 0 0 0 0 0 0 0 0 0 0 0 0 0.05 0"/>
<feBlend mode="normal" in2="BackgroundImageFix" result="effect1_dropShadow_4_65"/>
<feBlend mode="normal" in="SourceGraphic" in2="effect1_dropShadow_4_65" result="shape"/>
</filter>
</defs>
</svg>
