<svg width="114" height="270" viewBox="0 0 114 270" fill="none" xmlns="http://www.w3.org/2000/svg">
<rect width="114" height="270" fill="white"/>
<circle cx="57.2645" cy="120.385" r="20" fill="#D9D9D9"/>
<g filter="url(#filter0_d_4_79)">
<circle cx="57.1925" cy="121.192" r="16" transform="rotate(-155.514 57.1925 121.192)" fill="#ECECEC"/>
</g>
<g filter="url(#filter1_i_4_79)">
<rect x="52.0439" y="134.336" width="3" height="9" transform="rotate(-155.514 52.0439 134.336)" fill="#B4B4B4"/>
</g>
<path d="M41.2645 154.885C41.2645 153.504 42.3838 152.385 43.7645 152.385H70.7645C72.1452 152.385 73.2645 153.504 73.2645 154.885V166.885C73.2645 168.266 72.1452 169.385 70.7645 169.385H43.7645C42.3838 169.385 41.2645 168.266 41.2645 166.885V154.885Z" fill="#B4B4B4"/>
<path d="M49.8645 165.529C48.7445 165.529 47.9165 165.149 47.3805 164.389C46.8525 163.629 46.5885 162.565 46.5885 161.197C46.5885 159.829 46.8525 158.765 47.3805 158.005C47.9165 157.245 48.7445 156.865 49.8645 156.865C50.9845 156.865 51.8085 157.245 52.3365 158.005C52.8725 158.765 53.1405 159.829 53.1405 161.197C53.1405 162.565 52.8725 163.629 52.3365 164.389C51.8085 165.149 50.9845 165.529 49.8645 165.529ZM49.8645 164.113C50.4005 164.113 50.7725 163.925 50.9805 163.549C51.1965 163.173 51.3045 162.649 51.3045 161.977V160.417C51.3045 159.745 51.1965 159.221 50.9805 158.845C50.7725 158.469 50.4005 158.281 49.8645 158.281C49.3285 158.281 48.9525 158.469 48.7365 158.845C48.5285 159.221 48.4245 159.745 48.4245 160.417V161.977C48.4245 162.649 48.5285 163.173 48.7365 163.549C48.9525 163.925 49.3285 164.113 49.8645 164.113ZM49.8645 161.905C49.5845 161.905 49.3885 161.849 49.2765 161.737C49.1725 161.625 49.1205 161.489 49.1205 161.329V161.065C49.1205 160.905 49.1725 160.769 49.2765 160.657C49.3885 160.545 49.5845 160.489 49.8645 160.489C50.1445 160.489 50.3365 160.545 50.4405 160.657C50.5525 160.769 50.6085 160.905 50.6085 161.065V161.329C50.6085 161.489 50.5525 161.625 50.4405 161.737C50.3365 161.849 50.1445 161.905 49.8645 161.905ZM57.0598 165.529C55.9398 165.529 55.1118 165.149 54.5758 164.389C54.0478 163.629 53.7838 162.565 53.7838 161.197C53.7838 159.829 54.0478 158.765 54.5758 158.005C55.1118 157.245 55.9398 156.865 57.0598 156.865C58.1798 156.865 59.0038 157.245 59.5318 158.005C60.0678 158.765 60.3358 159.829 60.3358 161.197C60.3358 162.565 60.0678 163.629 59.5318 164.389C59.0038 165.149 58.1798 165.529 57.0598 165.529ZM57.0598 164.113C57.5958 164.113 57.9678 163.925 58.1758 163.549C58.3918 163.173 58.4998 162.649 58.4998 161.977V160.417C58.4998 159.745 58.3918 159.221 58.1758 158.845C57.9678 158.469 57.5958 158.281 57.0598 158.281C56.5238 158.281 56.1478 158.469 55.9318 158.845C55.7238 159.221 55.6198 159.745 55.6198 160.417V161.977C55.6198 162.649 55.7238 163.173 55.9318 163.549C56.1478 163.925 56.5238 164.113 57.0598 164.113ZM57.0598 161.905C56.7798 161.905 56.5838 161.849 56.4718 161.737C56.3678 161.625 56.3158 161.489 56.3158 161.329V161.065C56.3158 160.905 56.3678 160.769 56.4718 160.657C56.5838 160.545 56.7798 160.489 57.0598 160.489C57.3398 160.489 57.5318 160.545 57.6358 160.657C57.7478 160.769 57.8038 160.905 57.8038 161.065V161.329C57.8038 161.489 57.7478 161.625 57.6358 161.737C57.5318 161.849 57.3398 161.905 57.0598 161.905ZM64.2551 165.529C63.1351 165.529 62.3071 165.149 61.7711 164.389C61.2431 163.629 60.9791 162.565 60.9791 161.197C60.9791 159.829 61.2431 158.765 61.7711 158.005C62.3071 157.245 63.1351 156.865 64.2551 156.865C65.3751 156.865 66.1991 157.245 66.7271 158.005C67.2631 158.765 67.5311 159.829 67.5311 161.197C67.5311 162.565 67.2631 163.629 66.7271 164.389C66.1991 165.149 65.3751 165.529 64.2551 165.529ZM64.2551 164.113C64.7911 164.113 65.1631 163.925 65.3711 163.549C65.5871 163.173 65.6951 162.649 65.6951 161.977V160.417C65.6951 159.745 65.5871 159.221 65.3711 158.845C65.1631 158.469 64.7911 158.281 64.2551 158.281C63.7191 158.281 63.3431 158.469 63.1271 158.845C62.9191 159.221 62.8151 159.745 62.8151 160.417V161.977C62.8151 162.649 62.9191 163.173 63.1271 163.549C63.3431 163.925 63.7191 164.113 64.2551 164.113ZM64.2551 161.905C63.9751 161.905 63.7791 161.849 63.6671 161.737C63.5631 161.625 63.5111 161.489 63.5111 161.329V161.065C63.5111 160.905 63.5631 160.769 63.6671 160.657C63.7791 160.545 63.9751 160.489 64.2551 160.489C64.5351 160.489 64.7271 160.545 64.8311 160.657C64.9431 160.769 64.9991 160.905 64.9991 161.065V161.329C64.9991 161.489 64.9431 161.625 64.8311 161.737C64.7271 161.849 64.5351 161.905 64.2551 161.905Z" fill="white"/>
<defs>
<filter id="filter0_d_4_79" x="37.1886" y="105.189" width="40.0078" height="40.0078" filterUnits="userSpaceOnUse" color-interpolation-filters="sRGB">
<feFlood flood-opacity="0" result="BackgroundImageFix"/>
<feColorMatrix in="SourceAlpha" type="matrix" values="0 0 0 0 0 0 0 0 0 0 0 0 0 0 0 0 0 0 127 0" result="hardAlpha"/>
<feOffset dy="4"/>
<feGaussianBlur stdDeviation="2"/>
<feComposite in2="hardAlpha" operator="out"/>
<feColorMatrix type="matrix" values="0 0 0 0 0 0 0 0 0 0 0 0 0 0 0 0 0 0 0.25 0"/>
<feBlend mode="normal" in2="BackgroundImageFix" result="effect1_dropShadow_4_79"/>
<feBlend mode="normal" in="SourceGraphic" in2="effect1_dropShadow_4_79" result="shape"/>
</filter>
<filter id="filter1_i_4_79" x="49.3137" y="124.902" width="6.46037" height="13.434" filterUnits="userSpaceOnUse" color-interpolation-filters="sRGB">
<feFlood flood-opacity="0" result="BackgroundImageFix"/>
<feBlend mode="normal" in="SourceGraphic" in2="BackgroundImageFix" result="shape"/>
<feColorMatrix in="SourceAlpha" type="matrix" values="0 0 0 0 0 0 0 0 0 0 0 0 0 0 0 0 0 0 127 0" result="hardAlpha"/>
<feOffset dy="4"/>
<feGaussianBlur stdDeviation="2"/>
<feComposite in2="hardAlpha" operator="arithmetic" k2="-1" k3="1"/>
<feColorMatrix type="matrix" values="0 0 0 0 0 0 0 0 0 0 0 0 0 0 0 0 0 0 0.25 0"/>
<feBlend mode="normal" in2="shape" result="effect1_innerShadow_4_79"/>
</filter>
</defs>
</svg>
