<svg width="114" height="270" viewBox="0 0 114 270" fill="none" xmlns="http://www.w3.org/2000/svg">
<rect width="114" height="270" fill="white"/>
<path d="M42 209.5C42 208.119 43.1193 207 44.5 207H71.5C72.8807 207 74 208.119 74 209.5V221.5C74 222.881 72.8807 224 71.5 224H44.5C43.1193 224 42 222.881 42 221.5V209.5Z" fill="#B4B4B4"/>
<path d="M41 117.5C41 116.119 42.1193 115 43.5 115H70.5C71.8807 115 73 116.119 73 117.5V129.5C73 130.881 71.8807 132 70.5 132H43.5C42.1193 132 41 130.881 41 129.5V117.5Z" fill="#B4B4B4"/>
<path d="M42 186.5C42 185.119 43.1193 184 44.5 184H71.5C72.8807 184 74 185.119 74 186.5V198.5C74 199.881 72.8807 201 71.5 201H44.5C43.1193 201 42 199.881 42 198.5V186.5Z" fill="#B4B4B4"/>
<path d="M41 94.5C41 93.1193 42.1193 92 43.5 92H70.5C71.8807 92 73 93.1193 73 94.5V106.5C73 107.881 71.8807 109 70.5 109H43.5C42.1193 109 41 107.881 41 106.5V94.5Z" fill="#B4B4B4"/>
<path d="M42 163.5C42 162.119 43.1193 161 44.5 161H71.5C72.8807 161 74 162.119 74 163.5V175.5C74 176.881 72.8807 178 71.5 178H44.5C43.1193 178 42 176.881 42 175.5V163.5Z" fill="#B4B4B4"/>
<path d="M41 71.5C41 70.1193 42.1193 69 43.5 69H70.5C71.8807 69 73 70.1193 73 71.5V83.5C73 84.8807 71.8807 86 70.5 86H43.5C42.1193 86 41 84.8807 41 83.5V71.5Z" fill="#B4B4B4"/>
<path d="M42 140.5C42 139.119 43.1193 138 44.5 138H71.5C72.8807 138 74 139.119 74 140.5V152.5C74 153.881 72.8807 155 71.5 155H44.5C43.1193 155 42 153.881 42 152.5V140.5Z" fill="#B4B4B4"/>
<path d="M41 48.5C41 47.1193 42.1193 46 43.5 46H70.5C71.8807 46 73 47.1193 73 48.5V60.5C73 61.8807 71.8807 63 70.5 63H43.5C42.1193 63 41 61.8807 41 60.5V48.5Z" fill="#B4B4B4"/>
</svg>
